# File created by Blade
# Date/Time:  Wed Jan 21 19:08:52 2015
# Frame Rate: 120.000 fps
#------------------------------------------------------
:FULLY-SPECIFIED
:DEGREES
4073
root -5.580144 32.872306 -3.663394 45.351856 5.732235 -2.256811
RightUpLeg -40.156912 -14.606891 11.781581
RightLeg 1.487895 -0.000000 -0.000000
RightFoot -9.191455 -5.577724 24.904613
RightToeBase 16.164479 -0.000000 -0.000000
LeftUpLeg -43.110880 15.235523 -16.419643
LeftLeg -0.172445 -0.000000 0.000000
LeftFoot -10.538272 11.205307 -6.949401
LeftToeBase 7.813511 -0.000000 -0.000000
Spine -48.361136 -1.094173 6.621733
RightShoulder -19.054010 14.143445 -41.718749
RightArm -0.637713 -15.314773 56.822498
RightForeArm 9.987663 -0.000000 -1.655350
RightHand 12.514411 -0.000000 3.496202
RightHandThumb1 -24.326973 -0.000000 -32.862282
LeftShoulder -11.372884 5.340225 35.216057
LeftArm 18.617033 -4.265522 -53.610755
LeftForeArm 8.517603 0.000000 -2.544716
LeftHand -13.507733 -0.000000 -5.962292
LeftHandThumb1 -26.253704 0.000000 33.147579
Head 6.201065 -3.305983 4.146207
4074
root -5.597620 32.865993 -3.635319 45.260003 5.831758 -2.077760
RightUpLeg -39.874758 -14.774673 11.650818
RightLeg 1.237617 -0.000000 -0.000000
RightFoot -9.244176 -5.495181 24.975774
RightToeBase 16.213121 -0.000000 -0.000000
LeftUpLeg -42.950896 15.264330 -16.523479
LeftLeg -0.167529 -0.000000 0.000000
LeftFoot -10.586535 10.915136 -7.279462
LeftToeBase 7.952370 -0.000000 -0.000000
Spine -48.347246 -1.204259 6.577352
RightShoulder -19.029909 14.099873 -41.746633
RightArm -0.558431 -15.387379 56.729894
RightForeArm 9.885845 -0.000000 -1.710130
RightHand 12.586241 0.000000 3.777411
RightHandThumb1 -24.326973 -0.000000 -32.862282
LeftShoulder -11.352515 5.298955 35.202850
LeftArm 18.752919 -4.297250 -53.475035
LeftForeArm 8.719322 -0.000000 -2.778840
LeftHand -13.509340 -0.000000 -6.206805
LeftHandThumb1 -26.253704 0.000000 33.147579
Head 6.262739 -3.322293 4.048240
4075
root -5.617367 32.859447 -3.607973 45.159868 5.947301 -1.918348
RightUpLeg -39.568152 -14.959654 11.561463
RightLeg 0.947342 -0.000000 -0.000000
RightFoot -9.214695 -5.397114 25.047532
RightToeBase 16.093824 -0.000000 -0.000000
LeftUpLeg -42.795284 15.318914 -16.598835
LeftLeg -0.145537 -0.000000 0.000000
LeftFoot -10.502925 10.625464 -7.235440
LeftToeBase 7.702070 -0.000000 -0.000000
Spine -48.323836 -1.312455 6.548104
RightShoulder -18.992710 14.141279 -41.808316
RightArm -0.599100 -15.620931 56.669792
RightForeArm 9.905549 -0.000000 -1.727272
RightHand 12.456850 -0.000000 3.903104
RightHandThumb1 -24.326973 -0.000000 -32.862282
LeftShoulder -11.316146 5.306232 35.173902
LeftArm 18.903351 -4.341182 -53.300334
LeftForeArm 9.097881 -0.000000 -2.953238
LeftHand -13.572466 0.000000 -6.499763
LeftHandThumb1 -26.253704 0.000000 33.147579
Head 6.323921 -3.345532 3.953877
4076
root -5.635534 32.854436 -3.584834 45.081221 6.054148 -1.749079
RightUpLeg -39.284147 -15.130944 11.450716
RightLeg 0.649759 -0.000000 -0.000000
RightFoot -9.174807 -5.311568 25.084155
RightToeBase 16.057271 -0.000000 -0.000000
LeftUpLeg -42.676704 15.386521 -16.718997
LeftLeg -0.111239 -0.000000 0.000000
LeftFoot -10.446003 10.250966 -7.357165
LeftToeBase 7.768212 -0.000000 -0.000000
Spine -48.308067 -1.425187 6.518095
RightShoulder -18.949300 14.073114 -41.830199
RightArm -0.491335 -15.703195 56.558524
RightForeArm 9.885138 -0.000000 -1.817215
RightHand 12.426907 -0.000000 4.249724
RightHandThumb1 -24.326973 -0.000000 -32.862282
LeftShoulder -11.283393 5.290429 35.152863
LeftArm 19.044275 -4.281393 -53.088778
LeftForeArm 9.319789 -0.000000 -3.191985
LeftHand -13.598137 0.000000 -6.773075
LeftHandThumb1 -26.253704 0.000000 33.147579
Head 6.351016 -3.334417 3.849006
4077
root -5.653505 32.850860 -3.560319 44.993074 6.190920 -1.579986
RightUpLeg -38.981638 -15.336261 11.362763
RightLeg 0.335473 -0.000000 -0.000000
RightFoot -9.123276 -5.216448 25.140391
RightToeBase 16.022791 -0.000000 -0.000000
LeftUpLeg -42.535115 15.414965 -16.787985
LeftLeg -0.075334 -0.000000 0.000000
LeftFoot -10.356448 9.905951 -7.421485
LeftToeBase 7.674693 -0.000000 -0.000000
Spine -48.287221 -1.559459 6.512073
RightShoulder -18.893403 14.083028 -41.895961
RightArm -0.497299 -15.779452 56.479106
RightForeArm 9.832734 -0.000000 -1.852749
RightHand 12.354748 0.000000 4.368318
RightHandThumb1 -24.326973 -0.000000 -32.862282
LeftShoulder -11.271680 5.261184 35.125263
LeftArm 19.178511 -4.291637 -52.878415
LeftForeArm 9.653823 -0.000000 -3.401022
LeftHand -13.551387 -0.000000 -7.006863
LeftHandThumb1 -26.253704 0.000000 33.147579
Head 6.385555 -3.335117 3.758896
